PathFileType  4	(X/Y/Z) D:\Research_projects\MuscleProsody\BulkSports2Dtrack\RetrackedSports2D\p1_sample60_cam3\p1_sample60_cam3_Sports2D\pose-3d
DataRate	CameraRate	NumFrames	NumMarkers	Units	OrigDataRate	OrigDataStartFrame	OrigNumFrames
60.0	60.0	16	22	m	60.0	390	780
Frame#	Time	Hip			RHip			RKnee			RAnkle			RBigToe			RSmallToe			RHeel			LHip			LKnee			LAnkle			LBigToe			LSmallToe			LHeel			Neck			Head			Nose			RShoulder			RElbow			RWrist			LShoulder			LElbow			LWrist			
		X1	Y1	Z1	X2	Y2	Z2	X3	Y3	Z3	X4	Y4	Z4	X5	Y5	Z5	X6	Y6	Z6	X7	Y7	Z7	X8	Y8	Z8	X9	Y9	Z9	X10	Y10	Z10	X11	Y11	Z11	X12	Y12	Z12	X13	Y13	Z13	X14	Y14	Z14	X15	Y15	Z15	X16	Y16	Z16	X17	Y17	Z17	X18	Y18	Z18	X19	Y19	Z19	X20	Y20	Z20	X21	Y21	Z21	X22	Y22	Z22	

391	6.5000000	0.5926800	0.8840426	0.0301000	0.5083409	0.8411727	0.0301000	0.6075103	0.4744577	0.1290000	0.7750283	0.1571636	0.0230000	0.7087913	0.0004437	0.2179000	0.6794588	0.0340787	0.1804000	0.8296848	0.1290319	-0.0119000	0.6713577	0.9281579	0.0301000	0.7805236	0.5378235	0.1290000	0.9201507	0.1520867	0.0230000	0.8554515	0.0011078	0.2179000	0.9215267	0.0087666	0.1804000	0.9580842	0.1251240	-0.0119000	0.1600993	1.2741797	0.0008000	-0.1582780	1.3704744	0.0655000	-0.0484278	1.2335801	0.1076000	0.1567597	1.0879398	-0.0127500	0.1517439	0.8810428	0.0702000	-0.0277987	0.7017193	0.1076000	0.3297159	1.3842284	-0.0127500	0.5333059	1.5731114	0.0702000	0.4448906	1.8349220	0.1076000
392	6.5166667	0.5906278	0.8837441	0.0301000	0.5063481	0.8411005	0.0301000	0.6066643	0.4740692	0.1290000	0.7754050	0.1570307	0.0230000	0.7086462	0.0002412	0.2179000	0.6796389	0.0339787	0.1804000	0.8301240	0.1288063	-0.0119000	0.6690674	0.9276502	0.0301000	0.7788065	0.5371313	0.1290000	0.9202519	0.1518854	0.0230000	0.8552046	0.0009512	0.2179000	0.9211742	0.0086902	0.1804000	0.9586086	0.1252052	-0.0119000	0.1584142	1.2740928	0.0008000	-0.1597349	1.3705599	0.0655000	-0.0504360	1.2340476	0.1076000	0.1564137	1.0891027	-0.0127500	0.1543204	0.8807167	0.0702000	-0.0254348	0.6997837	0.1076000	0.3273369	1.3827145	-0.0127500	0.5351216	1.5673657	0.0702000	0.4519546	1.8280170	0.1076000
393	6.5333333	0.5879592	0.8830115	0.0301000	0.5036134	0.8405366	0.0301000	0.6056607	0.4732485	0.1290000	0.7757101	0.1568048	0.0230000	0.7084447	0.0000197	0.2179000	0.6798840	0.0338713	0.1804000	0.8306031	0.1284814	-0.0119000	0.6662945	0.9263900	0.0301000	0.7767249	0.5359481	0.1290000	0.9203204	0.1515453	0.0230000	0.8549321	0.0006711	0.2179000	0.9207889	0.0086203	0.1804000	0.9591812	0.1252795	-0.0119000	0.1573297	1.2748899	0.0008000	-0.1604906	1.3723898	0.0655000	-0.0519527	1.2358796	0.1076000	0.1558922	1.0918082	-0.0127500	0.1564390	0.8819646	0.0702000	-0.0246698	0.7001678	0.1076000	0.3258137	1.3815369	-0.0127500	0.5390055	1.5596917	0.0702000	0.4628613	1.8182170	0.1076000
394	6.5500000	0.5847700	0.8818346	0.0301000	0.5002518	0.8395244	0.0301000	0.6045538	0.4721178	0.1290000	0.7759521	0.1565415	0.0230000	0.7081836	-0.0002332	0.2179000	0.6801559	0.0337749	0.1804000	0.8310979	0.1281193	-0.0119000	0.6630832	0.9244171	0.0301000	0.7743328	0.5343288	0.1290000	0.9203665	0.1510817	0.0230000	0.8546479	0.0002618	0.2179000	0.9203837	0.0085181	0.1804000	0.9598091	0.1253520	-0.0119000	0.1568215	1.2765418	0.0008000	-0.1605444	1.3759351	0.0655000	-0.0529791	1.2390474	0.1076000	0.1552296	1.0958562	-0.0127500	0.1582744	0.8845829	0.0702000	-0.0252502	0.7026242	0.1076000	0.3251630	1.3807150	-0.0127500	0.5447959	1.5499627	0.0702000	0.4769255	1.8050408	0.1076000
395	6.5666667	0.5811601	0.8802174	0.0301000	0.4963963	0.8381232	0.0301000	0.6033756	0.4707994	0.1290000	0.7761524	0.1562952	0.0230000	0.7078700	-0.0005316	0.2179000	0.6804158	0.0336848	0.1804000	0.8315781	0.1277820	-0.0119000	0.6594870	0.9218056	0.0301000	0.7716762	0.5323456	0.1290000	0.9204086	0.1505077	0.0230000	0.8543701	-0.0002857	0.2179000	0.9199813	0.0083395	0.1804000	0.9604846	0.1254071	-0.0119000	0.1568673	1.2789889	0.0008000	-0.1598910	1.3811255	0.0655000	-0.0535163	1.2434857	0.1076000	0.1544707	1.1010149	-0.0127500	0.1600166	0.8883516	0.0702000	-0.0268636	0.7068875	0.1076000	0.3254130	1.3802452	-0.0127500	0.5522639	1.5380407	0.0702000	0.4933531	1.7879387	0.1076000
396	6.5833333	0.5772215	0.8781851	0.0301000	0.4921809	0.8364025	0.0301000	0.6021358	0.4694008	0.1290000	0.7763367	0.1560981	0.0230000	0.7075088	-0.0008945	0.2179000	0.6806262	0.0335745	0.1804000	0.8320215	0.1275141	-0.0119000	0.6555615	0.9186636	0.0301000	0.7688003	0.5300837	0.1290000	0.9204670	0.1498230	0.0230000	0.8541076	-0.0009719	0.2179000	0.9195996	0.0080444	0.1804000	0.9611938	0.1254087	-0.0119000	0.1574452	1.2821550	0.0008000	-0.1585212	1.3878485	0.0655000	-0.0535641	1.2490977	0.1076000	0.1536723	1.1070634	-0.0127500	0.1618655	0.8930389	0.0702000	-0.0291654	0.7126723	0.1076000	0.3266024	1.3801081	-0.0127500	0.5611215	1.5237992	0.0702000	0.5113085	1.7663505	0.1076000
397	6.6000000	0.5730361	0.8757901	0.0301000	0.4877278	0.8344353	0.0301000	0.6008294	0.4680175	0.1290000	0.7765221	0.1559556	0.0230000	0.7070967	-0.0013433	0.2179000	0.6807568	0.0334171	0.1804000	0.8324201	0.1273361	-0.0119000	0.6513615	0.9151171	0.0301000	0.7657534	0.5276394	0.1290000	0.9205562	0.1490149	0.0230000	0.8538557	-0.0017804	0.2179000	0.9192386	0.0076106	0.1804000	0.9619262	0.1253178	-0.0119000	0.1585303	1.2859585	0.0008000	-0.1564159	1.3959459	0.0655000	-0.0531192	1.2557480	0.1076000	0.1528968	1.1138069	-0.0127500	0.1640199	0.8984048	0.0702000	-0.0317900	0.7196766	0.1076000	0.3287642	1.3802702	-0.0127500	0.5710243	1.5071539	0.0702000	0.5299645	1.7397816	0.1076000
398	6.6166667	0.5686714	0.8731090	0.0301000	0.4831403	0.8322938	0.0301000	0.5994526	0.4667241	0.1290000	0.7767116	0.1558638	0.0230000	0.7066351	-0.0018929	0.2179000	0.6807915	0.0331973	0.1804000	0.8327680	0.1272492	-0.0119000	0.6469430	0.9112949	0.0301000	0.7625918	0.5251051	0.1290000	0.9206807	0.1480690	0.0230000	0.8536103	-0.0026829	0.2179000	0.9188909	0.0070361	0.1804000	0.9626721	0.1251038	-0.0119000	0.1600855	1.2903143	0.0008000	-0.1535428	1.4052136	0.0655000	-0.0521752	1.2632628	0.1076000	0.1522085	1.1210667	-0.0127500	0.1666547	0.9042082	0.0702000	-0.0343535	0.7275868	0.1076000	0.3318992	1.3806785	-0.0127500	0.5815660	1.4880896	0.0702000	0.5485301	1.7078703	0.1076000
399	6.6333333	0.5641736	0.8702275	0.0301000	0.4784997	0.8300474	0.0301000	0.5980063	0.4655627	0.1290000	0.7768963	0.1558217	0.0230000	0.7061365	-0.0025468	0.2179000	0.6807280	0.0329059	0.1804000	0.8330490	0.1272421	-0.0119000	0.6423588	0.9073163	0.0301000	0.7593753	0.5225487	0.1290000	0.9208370	0.1469795	0.0230000	0.8533783	-0.0036527	0.2179000	0.9185548	0.0063281	0.1804000	0.9634149	0.1247509	-0.0119000	0.1620613	1.2951309	0.0008000	-0.1498591	1.4154241	0.0655000	-0.0507262	1.2714511	0.1076000	0.1516749	1.1286757	-0.0127500	0.1698936	0.9102188	0.0702000	-0.0364736	0.7360798	0.1076000	0.3359605	1.3812529	-0.0127500	0.5922909	1.4666690	0.0702000	0.5662918	1.6704099	0.1076000
400	6.6500000	0.5595687	0.8672215	0.0301000	0.4738631	0.8277552	0.0301000	0.5964911	0.4645449	0.1290000	0.7770582	0.1558290	0.0230000	0.7056103	-0.0032983	0.2179000	0.6805693	0.0325340	0.1804000	0.8332491	0.1273032	-0.0119000	0.6376483	0.9032779	0.0301000	0.7561637	0.5200083	0.1290000	0.9210136	0.1457524	0.0230000	0.8531702	-0.0046700	0.2179000	0.9182334	0.0054956	0.1804000	0.9641292	0.1242629	-0.0119000	0.1644092	1.3003121	0.0008000	-0.1453209	1.4263616	0.0655000	-0.0487660	1.2801346	0.1076000	0.1513627	1.1364997	-0.0127500	0.1737928	0.9162294	0.0702000	-0.0378168	0.7448112	0.1076000	0.3408587	1.3818924	-0.0127500	0.6027327	1.4430368	0.0702000	0.5826676	1.6273628	0.1076000
401	6.6666667	0.5548739	0.8641479	0.0301000	0.4692671	0.8254635	0.0301000	0.5949082	0.4636571	0.1290000	0.7771745	0.1558870	0.0230000	0.7050528	-0.0041330	0.2179000	0.6803210	0.0320733	0.1804000	0.8333741	0.1274309	-0.0119000	0.6328349	0.8992478	0.0301000	0.7530182	0.5174956	0.1290000	0.9211891	0.1444086	0.0230000	0.8529930	-0.0057134	0.2179000	0.9179321	0.0045516	0.1804000	0.9647862	0.1236661	-0.0119000	0.1670922	1.3057603	0.0008000	-0.1398995	1.4378340	0.0655000	-0.0462857	1.2891563	0.1076000	0.1513309	1.1444498	-0.0127500	0.1783326	0.9220611	0.0702000	-0.0381391	0.7533884	0.1076000	0.3464760	1.3824909	-0.0127500	0.6124455	1.4174458	0.0702000	0.5972296	1.5789135	0.1076000
402	6.6833333	0.5501088	0.8610538	0.0301000	0.4647386	0.8232108	0.0301000	0.5932638	0.4628662	0.1290000	0.7772225	0.1560104	0.0230000	0.7044554	-0.0050314	0.2179000	0.6799936	0.0315136	0.1804000	0.8334431	0.1276276	-0.0119000	0.6279341	0.8952749	0.0301000	0.7499971	0.5150044	0.1290000	0.9213320	0.1429911	0.0230000	0.8528573	-0.0067486	0.2179000	0.9176698	0.0035226	0.1804000	0.9653660	0.1230035	-0.0119000	0.1700814	1.3113822	0.0008000	-0.1335951	1.4496686	0.0655000	-0.0432790	1.2983722	0.1076000	0.1516237	1.1524640	-0.0127500	0.1834076	0.9275683	0.0702000	-0.0372962	0.7613738	0.1076000	0.3526714	1.3829492	-0.0127500	0.6210247	1.3902872	0.0702000	0.6096904	1.5255307	0.1076000
403	6.7000000	0.5452969	0.8579826	0.0301000	0.4603031	0.8210309	0.0301000	0.5915694	0.4621337	0.1290000	0.7771794	0.1562299	0.0230000	0.7038145	-0.0059714	0.2179000	0.6796054	0.0308445	0.1804000	0.8334720	0.1278910	-0.0119000	0.6229566	0.8913972	0.0301000	0.7471439	0.5125206	0.1290000	0.9214023	0.1415723	0.0230000	0.8527833	-0.0077321	0.2179000	0.9174857	0.0024509	0.1804000	0.9658643	0.1223275	-0.0119000	0.1733520	1.3170980	0.0008000	-0.1264438	1.4617141	0.0655000	-0.0397498	1.3076467	0.1076000	0.1522665	1.1604767	-0.0127500	0.1888283	0.9326488	0.0702000	-0.0352315	0.7683465	0.1076000	0.3592888	1.3831825	-0.0127500	0.6281376	1.3620847	0.0702000	0.6198989	1.4679642	0.1076000
404	6.7166667	0.5404606	0.8549684	0.0301000	0.4559835	0.8189516	0.0301000	0.5898452	0.4614282	0.1290000	0.7770213	0.1565774	0.0230000	0.7031282	-0.0069288	0.2179000	0.6791789	0.0300710	0.1804000	0.8334767	0.1282170	-0.0119000	0.6179031	0.8876404	0.0301000	0.7444859	0.5100299	0.1290000	0.9213578	0.1402486	0.0230000	0.8527846	-0.0086253	0.2179000	0.9174208	0.0013828	0.1804000	0.9662871	0.1216956	-0.0119000	0.1768848	1.3228446	0.0008000	-0.1185219	1.4738509	0.0655000	-0.0357152	1.3168611	0.1076000	0.1532668	1.1684094	-0.0127500	0.1943376	0.9372559	0.0702000	-0.0319678	0.7739913	0.1076000	0.3661736	1.3831296	-0.0127500	0.6335626	1.3334554	0.0702000	0.6278604	1.4071884	0.1076000
405	6.7333333	0.5356132	0.8520313	0.0301000	0.4517917	0.8169956	0.0301000	0.5881252	0.4607266	0.1290000	0.7767275	0.1570730	0.0230000	0.7023949	-0.0078764	0.2179000	0.6787354	0.0292246	0.1804000	0.8334802	0.1286044	-0.0119000	0.6127583	0.8840133	0.0301000	0.7420445	0.5075203	0.1290000	0.9211650	0.1391239	0.0230000	0.8528516	-0.0094027	0.2179000	0.9174943	0.0003569	0.1804000	0.9666466	0.1211650	-0.0119000	0.1806630	1.3285731	0.0008000	-0.1099427	1.4859854	0.0655000	-0.0312070	1.3259204	0.1076000	0.1546180	1.1761821	-0.0127500	0.1996332	0.9414024	0.0702000	-0.0276133	0.7781641	0.1076000	0.3731846	1.3827620	-0.0127500	0.6372146	1.3050613	0.0702000	0.6337576	1.3443327	0.1076000
406	6.7500000	0.5307548	0.8491771	0.0301000	0.4477210	0.8151745	0.0301000	0.5864565	0.4600020	0.1290000	0.7762825	0.1577292	0.0230000	0.7016277	-0.0087841	0.2179000	0.6782928	0.0283498	0.1804000	0.8334996	0.1290487	-0.0119000	0.6074950	0.8805023	0.0301000	0.7398414	0.5049792	0.1290000	0.9208044	0.1382911	0.0230000	0.8529598	-0.0100492	0.2179000	0.9177067	-0.0005985	0.1804000	0.9669581	0.1207788	-0.0119000	0.1846649	1.3342463	0.0008000	-0.1008318	1.4980340	0.0655000	-0.0262739	1.3347561	0.1076000	0.1563023	1.1837314	-0.0127500	0.2043984	0.9451539	0.0702000	-0.0223707	0.7809326	0.1076000	0.3801987	1.3820916	-0.0127500	0.6391296	1.2775309	0.0702000	0.6379523	1.2805763	0.1076000
